<svg width="237" height="53" viewBox="0 0 237 53" fill="none" xmlns="http://www.w3.org/2000/svg">
<g clip-path="url(#clip0_1_46)">
<path fill-rule="evenodd" clip-rule="evenodd" d="M58.8448 26.3708C58.8448 31.1949 59.9132 35.5365 62.0493 39.3957C64.1855 43.2549 67.1723 46.278 71.0088 48.4649C74.8672 50.6303 79.2269 51.7131 84.0882 51.7131C88.9496 51.7131 93.2983 50.6303 97.1353 48.4649C100.994 46.278 103.991 43.2549 106.127 39.3957C108.263 35.5365 109.332 31.1949 109.332 26.3708C109.332 21.5468 108.263 17.2052 106.127 13.346C103.991 9.48673 100.994 6.47437 97.1353 4.30893C93.2983 2.12204 88.9496 1.02859 84.0882 1.02859C79.2269 1.02859 74.8672 2.12204 71.0088 4.30893C67.1723 6.47437 64.1855 9.48673 62.0493 13.346C59.9132 17.2052 58.8448 21.5468 58.8448 26.3708ZM100.274 26.3708C100.274 31.5808 98.8026 35.7938 95.8598 39.0098C92.8515 42.2258 88.9276 43.8338 84.0882 43.8338C79.2054 43.8338 75.2925 42.2258 72.3497 39.0098C69.3628 35.8152 67.8697 31.6022 67.8697 26.3708C67.8697 21.1394 69.3628 16.9264 72.3497 13.7319C75.2925 10.5159 79.2054 8.90784 84.0882 8.90784C88.9276 8.90784 92.8515 10.5159 95.8598 13.7319C98.8026 16.9479 100.274 21.1609 100.274 26.3708Z" fill="#0C192E"/>
<path d="M18.6451 9.58321C17.811 9.58321 17.3122 10.4962 17.7725 11.1803L18.523 12.2956C18.9834 12.9797 18.4846 13.8927 17.6504 13.8927L10.5458 13.8927C10.1987 13.8927 9.87418 13.7233 9.67951 13.4406L2.79623 3.44472C2.67893 3.27437 2.61623 3.07336 2.61623 2.86763L2.61623 2.70092C2.61623 2.13255 3.0847 1.6718 3.66259 1.6718L40.8083 1.6718C41.3862 1.6718 41.8546 2.13255 41.8546 2.70092L41.8546 3.00163C41.8546 3.20402 41.794 3.40192 41.6802 3.57057L16.0543 41.5604C15.5928 42.2444 16.0915 43.1585 16.9262 43.1585L29.4281 43.1585C29.4955 43.1585 29.5343 43.0833 29.4945 43.0298L27.5788 40.1898C27.1174 39.5057 27.6161 38.5917 28.4507 38.5917L35.6254 38.5917C35.9758 38.5917 36.3029 38.7642 36.4968 39.0512L43.2492 49.0422C43.3633 49.211 43.4242 49.4092 43.4242 49.6119L43.4242 50.0407C43.4242 50.6091 42.9557 51.0699 42.3778 51.0699L2.09305 51.0699C1.51516 51.0699 1.04669 50.6091 1.04669 50.0407L1.04669 49.7394C1.04669 49.5374 1.10713 49.3398 1.22048 49.1714L26.7849 11.1803C27.2453 10.4962 26.7465 9.58321 25.9123 9.58321L18.6451 9.58321Z" fill="#0C192E"/>
<path d="M141.232 50.0407C141.232 50.6091 140.764 51.0699 140.186 51.0699L134.039 51.0699C133.461 51.0699 132.992 50.6091 132.992 50.0407L132.992 2.70092C132.992 2.13255 133.461 1.6718 134.039 1.6718L141.715 1.6718C142.067 1.6718 142.395 1.84582 142.589 2.13493L165.014 35.6272C165.584 36.4801 166.934 36.0824 166.934 35.0612L166.934 2.70092C166.934 2.13255 167.402 1.6718 167.98 1.6718L174.193 1.6718C174.771 1.6718 175.239 2.13255 175.239 2.70092L175.239 50.0407C175.239 50.6091 174.771 51.0699 174.193 51.0699L166.485 51.0699C166.132 51.0699 165.804 50.8952 165.61 50.6052L143.154 16.9343C142.584 16.0795 141.232 16.4765 141.232 17.4987L141.232 50.0407Z" fill="#0C192E"/>
<path d="M202.039 50.0407C202.039 50.6091 202.507 51.0699 203.085 51.0699L234.541 51.0699C235.119 51.0699 235.588 50.6091 235.588 50.0407L235.588 44.3805C235.588 43.8122 235.119 43.3514 234.541 43.3514L211.783 43.3514C211.205 43.3514 210.737 42.8907 210.737 42.3223L210.737 30.1657C210.737 29.5973 211.205 29.1366 211.783 29.1366L226.497 29.1366C227.076 29.1366 227.544 28.6759 227.544 28.1075L227.544 22.4473C227.544 21.8789 227.076 21.4182 226.497 21.4182L211.783 21.4182C211.205 21.4182 210.737 20.9574 210.737 20.389L210.737 10.4194C210.737 9.85099 211.205 9.39025 211.783 9.39025L233.854 9.39025C234.433 9.39025 234.901 8.92951 234.901 8.36112L234.901 2.70092C234.901 2.13255 234.433 1.6718 233.854 1.6718L203.085 1.6718C202.507 1.6718 202.039 2.13255 202.039 2.70092L202.039 50.0407Z" fill="#0C192E"/>
<path fill-rule="evenodd" clip-rule="evenodd" d="M71.0088 48.4649C67.1723 46.278 64.1854 43.2549 62.0493 39.3957C59.9132 35.5365 58.8448 31.1949 58.8448 26.3708C58.8448 21.5468 59.9132 17.2052 62.0493 13.3459C64.1854 9.48672 67.1723 6.47437 71.0088 4.30893C74.8672 2.12204 79.2268 1.02859 84.0882 1.02859C88.9496 1.02859 93.2983 2.12204 97.1353 4.30893C100.994 6.47437 103.991 9.48672 106.127 13.3459C108.263 17.2052 109.332 21.5468 109.332 26.3708C109.332 31.1949 108.263 35.5365 106.127 39.3957C103.991 43.2549 100.994 46.278 97.1353 48.4649C93.2983 50.6303 88.9496 51.7131 84.0882 51.7131C79.2268 51.7131 74.8672 50.6303 71.0088 48.4649ZM97.6569 3.41681C93.6462 1.13161 89.1144 -0.000534103 84.0882 -0.000534101C79.061 -0.000534098 74.5182 1.13219 70.4861 3.41727C66.4806 5.67839 63.3578 8.82983 61.1301 12.8539C58.9024 16.8785 57.7985 21.3921 57.7985 26.3708C57.7985 31.3496 58.9024 35.8632 61.1301 39.8878C63.3578 43.9116 66.4801 47.073 70.484 49.3553L70.4903 49.3587C74.5214 51.621 79.0626 52.7422 84.0882 52.7422C89.1134 52.7422 93.6451 51.621 97.6558 49.3575L97.6574 49.3566C101.684 47.0746 104.818 43.9131 107.046 39.8878C109.274 35.8632 110.378 31.3496 110.378 26.3708C110.378 21.3921 109.274 16.8785 107.046 12.8539C104.818 8.82875 101.683 5.67746 97.6569 3.41681ZM73.1234 38.3173L73.1271 38.3214C75.8487 41.2953 79.4654 42.8047 84.0882 42.8047C88.6618 42.8047 92.2953 41.2984 95.086 38.3171C97.8196 35.3276 99.228 31.3788 99.228 26.3708C99.228 21.3628 97.8196 17.4141 95.086 14.4245C92.2953 11.4433 88.6618 9.93697 84.0882 9.93697C79.4654 9.93697 75.8487 11.4464 73.1271 14.4203L73.1234 14.4244L73.1198 14.4284C70.3459 17.3956 68.916 21.3415 68.916 26.3708C68.916 31.4002 70.3459 35.3461 73.1198 38.3132L73.1234 38.3173ZM95.8597 13.7319C98.8026 16.9479 100.274 21.1609 100.274 26.3708C100.274 31.5808 98.8026 35.7938 95.8597 39.0098C92.8515 42.2258 88.9276 43.8338 84.0882 43.8338C79.2054 43.8338 75.2925 42.2258 72.3497 39.0098C69.3628 35.8152 67.8697 31.6022 67.8697 26.3708C67.8697 21.1394 69.3628 16.9264 72.3497 13.7319C75.2925 10.5159 79.2054 8.90784 84.0882 8.90784C88.9276 8.90784 92.8515 10.5159 95.8597 13.7319ZM20.4703 13.3247C20.9306 14.0088 20.4318 14.9218 19.5976 14.9218L9.99077 14.9218C9.64359 14.9218 9.31906 14.7525 9.12439 14.4698L1.74984 3.76042C1.63254 3.59008 1.56984 3.38906 1.56984 3.18333L1.56984 1.6718C1.56984 1.10343 2.03831 0.64267 2.6162 0.64267L41.8546 0.64267C42.4325 0.64267 42.901 1.10343 42.901 1.6718L42.901 3.31197C42.901 3.51435 42.8403 3.71226 42.7265 3.8809L18.0041 40.5312C17.5428 41.2153 18.0414 42.1293 18.8761 42.1293L25.6815 42.1293C26.5162 42.1293 27.0149 41.2153 26.5534 40.5312L25.6289 39.1607C25.1675 38.4766 25.6662 37.5626 26.5008 37.5626L36.1863 37.5626C36.5367 37.5626 36.8637 37.7351 37.0577 38.022L44.2956 48.7314C44.4097 48.9002 44.4705 49.0984 44.4705 49.301L44.4705 51.0699C44.4705 51.6385 44.002 52.099 43.4241 52.099L1.04666 52.099C0.468776 52.099 0.000305202 51.6385 0.000305202 51.0699L0.000305201 49.4297C0.000305201 49.2277 0.0607449 49.0302 0.174094 48.8617L24.8376 12.2094C25.298 11.5253 24.7992 10.6123 23.965 10.6123L20.5923 10.6123C19.7582 10.6123 19.2594 11.5253 19.7198 12.2094L20.4703 13.3247ZM17.7725 11.1803C17.3121 10.4962 17.8109 9.5832 18.645 9.5832L25.9123 9.5832C26.7465 9.5832 27.2453 10.4962 26.7849 11.1803L1.22045 49.1714C1.1071 49.3398 1.04666 49.5374 1.04666 49.7394L1.04666 50.0407C1.04666 50.6091 1.51513 51.0699 2.09302 51.0699L42.3778 51.0699C42.9557 51.0699 43.4241 50.6091 43.4241 50.0407L43.4241 49.6119C43.4241 49.4092 43.3633 49.211 43.2492 49.0422L36.4968 39.0512C36.3028 38.7642 35.9758 38.5917 35.6254 38.5917L28.4507 38.5917C27.616 38.5917 27.1173 39.5057 27.5788 40.1898L29.4945 43.0298C29.5343 43.0833 29.4955 43.1585 29.4281 43.1585L16.9262 43.1585C16.0915 43.1585 15.5928 42.2444 16.0543 41.5604L41.6802 3.57056C41.7939 3.40192 41.8546 3.20402 41.8546 3.00163L41.8546 2.70092C41.8546 2.13255 41.3862 1.6718 40.8083 1.6718L3.66256 1.6718C3.08467 1.6718 2.6162 2.13255 2.6162 2.70092L2.6162 2.86763C2.6162 3.07336 2.6789 3.27437 2.7962 3.44472L9.67948 13.4406C9.87415 13.7233 10.1987 13.8927 10.5458 13.8927L17.6504 13.8927C18.4845 13.8927 18.9833 12.9797 18.523 12.2956L17.7725 11.1803ZM132.992 52.099C132.414 52.099 131.946 51.6385 131.946 51.0699L131.946 1.6718C131.946 1.10343 132.414 0.64267 132.992 0.64267L142.279 0.64267C142.631 0.64267 142.959 0.816695 143.152 1.1058L163.967 32.1932C164.538 33.0461 165.887 32.6484 165.887 31.6272L165.887 1.6718C165.887 1.10343 166.355 0.64267 166.934 0.64267L175.239 0.64267C175.817 0.64267 176.285 1.10343 176.285 1.6718L176.285 51.0699C176.285 51.6385 175.817 52.099 175.239 52.099L165.92 52.099C165.568 52.099 165.238 51.9245 165.045 51.6343L144.2 20.3795C143.63 19.5248 142.279 19.9218 142.279 20.9439L142.279 51.0699C142.279 51.6385 141.811 52.099 141.232 52.099L132.992 52.099ZM141.232 17.4987C141.232 16.4765 142.584 16.0795 143.154 16.9343L165.61 50.6052C165.804 50.8952 166.132 51.0699 166.485 51.0699L174.193 51.0699C174.771 51.0699 175.239 50.6091 175.239 50.0407L175.239 2.70092C175.239 2.13255 174.771 1.6718 174.193 1.6718L167.98 1.6718C167.402 1.6718 166.934 2.13255 166.934 2.70092L166.934 35.0612C166.934 36.0824 165.584 36.4801 165.014 35.6272L142.589 2.13493C142.395 1.84582 142.067 1.6718 141.715 1.6718L134.039 1.6718C133.461 1.6718 132.992 2.13255 132.992 2.70092L132.992 50.0407C132.992 50.6091 133.461 51.0699 134.039 51.0699L140.186 51.0699C140.764 51.0699 141.232 50.6091 141.232 50.0407L141.232 17.4987ZM236.634 51.0699C236.634 51.6385 236.166 52.099 235.588 52.099L202.039 52.099C201.461 52.099 200.993 51.6385 200.993 51.0699L200.993 1.6718C200.993 1.10343 201.461 0.64267 202.039 0.64267L234.901 0.64267C235.479 0.64267 235.947 1.10343 235.947 1.6718L235.947 9.39024C235.947 9.95863 235.479 10.4194 234.901 10.4194L212.829 10.4194C212.251 10.4194 211.783 10.8801 211.783 11.4485L211.783 19.3599C211.783 19.9283 212.251 20.389 212.829 20.389L227.544 20.389C228.122 20.389 228.59 20.8498 228.59 21.4182L228.59 29.1366C228.59 29.705 228.122 30.1657 227.544 30.1657L212.829 30.1657C212.251 30.1657 211.783 30.6265 211.783 31.1949L211.783 41.2932C211.783 41.8615 212.251 42.3223 212.829 42.3223L235.588 42.3223C236.166 42.3223 236.634 42.783 236.634 43.3514L236.634 51.0699ZM211.783 43.3514C211.205 43.3514 210.737 42.8907 210.737 42.3223L210.737 30.1657C210.737 29.5973 211.205 29.1366 211.783 29.1366L226.497 29.1366C227.076 29.1366 227.544 28.6759 227.544 28.1075L227.544 22.4473C227.544 21.8789 227.076 21.4182 226.497 21.4182L211.783 21.4182C211.205 21.4182 210.737 20.9574 210.737 20.389L210.737 10.4194C210.737 9.85098 211.205 9.39024 211.783 9.39024L233.854 9.39024C234.433 9.39024 234.901 8.9295 234.901 8.36112L234.901 2.70092C234.901 2.13255 234.433 1.6718 233.854 1.6718L203.085 1.6718C202.507 1.6718 202.039 2.13255 202.039 2.70092L202.039 50.0407C202.039 50.6091 202.507 51.0699 203.085 51.0699L234.541 51.0699C235.119 51.0699 235.588 50.6091 235.588 50.0407L235.588 44.3805C235.588 43.8121 235.119 43.3514 234.541 43.3514L211.783 43.3514Z" fill="#0C192E"/>
</g>
<defs>
<clipPath id="clip0_1_46">
<rect width="237" height="53" fill="white" transform="translate(0.000305176 -0.000534058)"/>
</clipPath>
</defs>
</svg>
